<?xml version="1.0" encoding="utf-8" ?>
<svg baseProfile="full" height="200mm" version="1.1" viewBox="0,0,200,200" width="200mm" xmlns="http://www.w3.org/2000/svg" xmlns:ev="http://www.w3.org/2001/xml-events" xmlns:xlink="http://www.w3.org/1999/xlink"><defs /><rect fill="#1a1a1a" height="200" width="200" x="0" y="0" /><text alignment-baseline="middle" fill="#e1ed5e" style="dominant-baseline: central; font-size:9.0px; font-family:Arial;" text-anchor="middle" x="100.0" y="100.0">2023</text><line stroke="#e1ed5e" stroke-width="0.3" x1="100.0" x2="100.0" y1="15.0" y2="10.0" /><path d="M 100.0 14.0 a86.0,86.0 0 0,1 42.46469731375804,11.215312516191453" fill="none" id="id49" stroke="none" /><text fill="#e1ed5e" style="font-size:6.75px; font-family:Arial;" text-anchor="middle"><textPath startOffset="22.20632615414155" xlink:href="#id49">January</textPath></text><path d="M 100.72285384407766 79.0124445844662 l 0.6403735021960373 -18.592796419485957 a39.60382103006704,39.60382103006704 0 0,0 0.6811087160676618,0.029329974064116623 l -0.9603230506530306 18.579018718897647" fill="#ffdd14" stroke="none" /><path d="M 103.2404852339499 79.25152402106235 l 2.192808598001174 -14.040315951872858 a35.210520102230014,35.210520102230014 0 0,0 0.5980268646250225,0.09867955675503358 l -2.4341646687650713 14.0004901321782" fill="#ffa30f" stroke="none" /><path d="M 108.09893153111575 80.62456947434976 l 10.608338337614708 -25.378794926635138 a48.50672779909503,48.50672779909503 0 0,0 0.7675987382896816,0.32864572039217416 l -11.043620833694703 25.192429678280174" fill="#b4ff20" stroke="none" /><path d="M 109.41281617654863 81.2277094730956 l 7.486535954920471 -14.930646190247177 a37.70246737050127,37.70246737050127 0 0,0 0.5776368318326633,0.2958880208009601 l -7.742433274341889 14.799565644133716" fill="#ffc412" stroke="none" /><path d="M 109.73455568895987 81.39251694778311 l 6.4522381744084605 -12.33337363464204 a34.91917679573678,34.91917679573678 0 0,0 0.5301977377368727,0.28321326958858506 l -6.663580958673644 12.220481638551702" fill="#ff9f0e" stroke="none" /><path d="M 110.05341064243156 81.56283822128135 l 8.069512267222343 -14.798848712912898 a37.85594706501345,37.85594706501345 0 0,0 0.5694181792000925,0.3168806002288697 l -8.323054535494471 14.657752715123848" fill="#ffc612" stroke="none" /><path d="M 110.36928655335952 81.73862282372117 l 2.838487511970447 -4.9988676462466755 a26.74853799676961,26.74853799676961 0 0,0 0.3984300041507074,0.2307963752813784 l -2.924114248586483 4.949267113575248" fill="#ff2c04" stroke="none" /><line stroke="#e1ed5e" stroke-width="0.3" x1="143.23703022742887" x2="145.7803849466894" y1="26.81831364943548" y2="22.513508569990506" /><path d="M 143.74570117128098 25.957352633546492 a86.0,86.0 0 0,1 28.547481713284135,27.462654790039103" fill="none" id="id50" stroke="none" /><text fill="#e1ed5e" style="font-size:6.75px; font-family:Arial;" text-anchor="middle"><textPath startOffset="19.985693538727396" xlink:href="#id50">February</textPath></text><path d="M 110.68208982089419 81.91981866633111 l 1.4018081194773289 -2.372657918077482 a23.755825030739132,23.755825030739132 0 0,0 0.3502716465625425,0.2110347478377284 l -1.442441832257509 2.348176560781139" fill="#ff0000" stroke="none" /><path d="M 110.99172775467656 82.1063720568725 l 7.206063312007753 -11.730877867205882 a34.76738333860015,34.76738333860015 0 0,0 0.507240970337084,0.31763424909070603 l -7.4069234347171005 11.605099276792231" fill="#ff9d0e" stroke="none" /><path d="M 112.77801427241765 83.33499621200491 l 8.361580229496127 -10.905118997946863 a34.74182099627564,34.74182099627564 0 0,0 0.4714422837341488,0.36796818034809725 l -8.548055068389706 10.759572428375542" fill="#ff9d0e" stroke="none" /><path d="M 113.89432698308785 84.25364557470407 l 12.789384535232688 -14.49413001567472 a40.32998090276687,40.32998090276687 0 0,0 0.5165867492051354,0.46379668401588114 l -13.036982272033814 14.271834322889541" fill="#ffe615" stroke="none" /><path d="M 114.42810811169701 84.74124197986012 l 9.455596648015074 -9.999970895084854 a34.76254794260489,34.76254794260489 0 0,0 0.4312488682750109,0.41486106960253 l -9.626328759902504 9.835726738720021" fill="#ff9d0e" stroke="none" /><path d="M 114.94478906791727 85.2469230424477 l 9.752640610625297 -9.627533504422784 a34.70413807062673,34.70413807062673 0 0,0 0.41601294046467546,0.4287379037187119 l -9.91691781479308 9.458231405153958" fill="#ff9c0e" stroke="none" /><path d="M 116.38621287248628 86.86637796730983 l 10.784826804721401 -8.644086345238897 a34.8214586043508,34.8214586043508 0 0,0 0.3708417678394884,0.47093138558500214 l -10.932022653154855 8.457162565700857" fill="#ff9e0e" stroke="none" /><path d="M 116.82858285166822 87.43820079747576 l 10.991158378804515 -8.204417791721395 a34.71561277555907,34.71561277555907 0 0,0 0.3533344942684082,0.4819478530968175 l -11.13075548558655 8.014007494953084" fill="#ff9d0e" stroke="none" /><path d="M 117.2510076193507 88.02491185347247 l 49.150912421444104 -34.11896404641444 a80.83239840973275,80.83239840973275 0 0,0 0.7835951760732939,1.149829230321401 l -49.73093206318613 33.267856792822634" fill="#49f0ff" stroke="none" /><line stroke="#e1ed5e" stroke-width="0.3" x1="172.23445277983987" x2="176.4835382374775" y1="55.19839476539836" y2="52.563006222186495" /><path d="M 173.08426987136738 54.67131705675599 a86.0,86.0 0 0,1 12.851231095245387,41.99856678651699" fill="none" id="id51" stroke="none" /><text fill="#e1ed5e" style="font-size:6.75px; font-family:Arial;" text-anchor="middle"><textPath startOffset="22.20632615414155" xlink:href="#id51">March</textPath></text><path d="M 117.84615892207809 88.93136811851018 l 23.34941909084489 -14.481890791830859 a48.475817236006414,48.475817236006414 0 0,0 0.43370667732428436,0.7128997420286859 l -23.595241566455396 14.07782327659509" fill="#b4ff20" stroke="none" /><path d="M 118.56541770881063 90.18545643968196 l 51.089249340274044 -27.00815413790074 a78.78885522390365,78.78885522390365 0 0,0 0.6235221195393369,1.2044462718454094 l -51.546580892973495 26.124735143794982" fill="#46fffa" stroke="none" /><path d="M 118.89224826269711 90.83032412892265 l 24.773337217428484 -12.024162999024963 a48.537224491868244,48.537224491868244 0 0,0 0.3583475691013048,0.7547713705512997 l -24.976642980371544 11.595949212833123" fill="#b4ff20" stroke="none" /><path d="M 119.61058180528143 92.48833698450437 l 58.83174541584429 -22.534989046486903 a84.0,84.0 0 0,0 0.505581645993499,1.354707451882667 l -59.21093165033941 21.518958457574904" fill="#4dd2ff" stroke="none" /><path d="M 120.6074358757038 95.95851677861258 l 10.0859806725631 -1.9780394759088162 a31.27811491935997,31.27811491935997 0 0,0 0.09906862720597422,0.5292285679282801 l -10.118535023678934 1.8041328305179734" fill="#ff6d0a" stroke="none" /><path d="M 120.83666639777658 97.38593545837742 l 30.40478816773761 -3.8144335148212414 a51.64312396874686,51.64312396874686 0 0,0 0.10306405215819417,0.8829898587354497 l -30.465942572899394 3.290499917760939" fill="#90ff24" stroke="none" /><path d="M 120.94382443527127 98.46500227214037 l 13.702299276279605 -1.0042577620217465 a34.73905160880159,34.73905160880159 0 0,0 0.038575912027826745,0.5967522849676755 l -13.717555779311848 0.7682464128010358" fill="#ff9d0e" stroke="none" /><line stroke="#e1ed5e" stroke-width="0.3" x1="184.98032266829074" x2="189.97916517819016" y1="98.17113171792111" y2="98.06355123074" /><path d="M 185.9800911702706 98.14961562048488 a86.0,86.0 0 0,1 -9.607161424134198,41.387399972396054" fill="none" id="id52" stroke="none" /><text fill="#e1ed5e" style="font-size:6.75px; font-family:Arial;" text-anchor="middle"><textPath startOffset="21.466115282336823" xlink:href="#id52">April</textPath></text><line stroke="#e1ed5e" stroke-width="0.3" x1="174.80103733775053" x2="179.2010983576182" y1="140.37084112569926" y2="142.7455964860345" /><path d="M 175.68104954172406 140.8457921977663 a86.0,86.0 0 0,1 -30.038265399797805,32.042727171017184" fill="none" id="id53" stroke="none" /><text fill="#e1ed5e" style="font-size:6.75px; font-family:Arial;" text-anchor="middle"><textPath startOffset="22.206326154141568" xlink:href="#id53">May</textPath></text><line stroke="#e1ed5e" stroke-width="0.3" x1="143.8653032363475" x2="146.44561519142675" y1="172.8068346515853" y2="177.08958963109032" /><path d="M 144.38136562736335 173.6633856474863 a86.0,86.0 0 0,1 -40.68145358897372,12.25698825130547" fill="none" id="id54" stroke="none" /><text fill="#e1ed5e" style="font-size:6.75px; font-family:Arial;" text-anchor="middle"><textPath startOffset="21.466115282336833" xlink:href="#id54">June</textPath></text><line stroke="#e1ed5e" stroke-width="0.3" x1="102.19456741930631" x2="102.32365962044197" y1="184.97166512339345" y2="189.96999836594603" /><path d="M 102.22038585953345 185.97133177190398 a86.0,86.0 0 0,1 -42.740103519485714,-10.115201625700543" fill="none" id="id55" stroke="none" /><text fill="#e1ed5e" style="font-size:6.75px; font-family:Arial;" text-anchor="middle"><textPath startOffset="22.20632615414155" xlink:href="#id55">July</textPath></text><line stroke="#e1ed5e" stroke-width="0.3" x1="58.666819895761336" x2="56.23545636021788" y1="174.27360380694188" y2="178.64263932499728" /><path d="M 58.180547188652646 175.14741091055294 a86.0,86.0 0 0,1 -31.652253787137756,-30.449443065178592" fill="none" id="id56" stroke="none" /><text fill="#e1ed5e" style="font-size:6.75px; font-family:Arial;" text-anchor="middle"><textPath startOffset="22.20632615414155" xlink:href="#id56">August</textPath></text><line stroke="#e1ed5e" stroke-width="0.3" x1="26.63291911575756" x2="22.317208475507996" y1="142.92168965132927" y2="145.44649492493687" /><path d="M 25.769776987707644 143.4266507060508 a86.0,86.0 0 0,1 -11.730757126820373,-40.83630448921669" fill="none" id="id57" stroke="none" /><text fill="#e1ed5e" style="font-size:6.75px; font-family:Arial;" text-anchor="middle"><textPath startOffset="21.46611528233685" xlink:href="#id57">September</textPath></text><line stroke="#e1ed5e" stroke-width="0.3" x1="15.007084014347285" x2="10.007500721073583" y1="101.09737516637583" y2="101.16192664675087" /><path d="M 14.007167355692545 101.11028546245083 a86.0,86.0 0 0,1 10.666146001902534,-42.60595125391555" fill="none" id="id58" stroke="none" /><text fill="#e1ed5e" style="font-size:6.75px; font-family:Arial;" text-anchor="middle"><textPath startOffset="22.20632615414155" xlink:href="#id58">October</textPath></text><line stroke="#e1ed5e" stroke-width="0.3" x1="26.266209847984243" x2="21.928928074336255" y1="57.711370442889674" y2="55.22380399835377" /><path d="M 25.398753493254645 57.213857153982495 a86.0,86.0 0 0,1 29.58750427330803,-30.492523968695096" fill="none" id="id59" stroke="none" /><text fill="#e1ed5e" style="font-size:6.75px; font-family:Arial;" text-anchor="middle"><textPath startOffset="21.46611528233685" xlink:href="#id59">November</textPath></text><path d="M 81.96595687620814 89.24020034530311 l -11.818614414701669 -7.05143724152106 a34.76235495307777,34.76235495307777 0 0,0 0.3110141576214376,-0.5112254994630996 l 11.695484458794015 7.253830514191234" fill="#ff9d0e" stroke="none" /><line stroke="#e1ed5e" stroke-width="0.3" x1="56.762969772571076" x2="54.21961505331055" y1="26.818313649435495" y2="22.513508569990535" /><path d="M 56.25429882871897 25.957352633546506 a86.0,86.0 0 0,1 42.265352541879196,-11.944610805530505" fill="none" id="id60" stroke="none" /><text fill="#e1ed5e" style="font-size:6.75px; font-family:Arial;" text-anchor="middle"><textPath startOffset="22.20632615414155" xlink:href="#id60">December</textPath></text></svg>